<?xml version="1.0" encoding="UTF-8" standalone="no"?>
<!-- Created with Inkscape (http://www.inkscape.org/) -->

<svg
   xmlns:dc="http://purl.org/dc/elements/1.1/"
   xmlns:cc="http://creativecommons.org/ns#"
   xmlns:rdf="http://www.w3.org/1999/02/22-rdf-syntax-ns#"
   xmlns:svg="http://www.w3.org/2000/svg"
   xmlns="http://www.w3.org/2000/svg"
   xmlns:sodipodi="http://sodipodi.sourceforge.net/DTD/sodipodi-0.dtd"
   xmlns:inkscape="http://www.inkscape.org/namespaces/inkscape"
   width="236.47621"
   height="119.72159"
   id="svg2"
   version="1.1"
   inkscape:version="0.48.4 r9939"
   sodipodi:docname="new_logo.svg"
   inkscape:export-filename="/home/mobile/hashkat/docs/img/new_logo1.png"
   inkscape:export-xdpi="90"
   inkscape:export-ydpi="90">
  <defs
     id="defs4" />
  <sodipodi:namedview
     id="base"
     pagecolor="#ffffff"
     bordercolor="#666666"
     borderopacity="1.0"
     inkscape:pageopacity="0.0"
     inkscape:pageshadow="2"
     inkscape:zoom="0.57597229"
     inkscape:cx="-1.132515"
     inkscape:cy="223.45643"
     inkscape:document-units="px"
     inkscape:current-layer="layer1"
     showgrid="false"
     inkscape:window-width="1920"
     inkscape:window-height="1031"
     inkscape:window-x="0"
     inkscape:window-y="25"
     inkscape:window-maximized="1"
     fit-margin-top="0"
     fit-margin-left="0"
     fit-margin-right="0"
     fit-margin-bottom="0" />
  <metadata
     id="metadata7">
    <rdf:RDF>
      <cc:Work
         rdf:about="">
        <dc:format>image/svg+xml</dc:format>
        <dc:type
           rdf:resource="http://purl.org/dc/dcmitype/StillImage" />
        <dc:title></dc:title>
      </cc:Work>
    </rdf:RDF>
  </metadata>
  <g
     inkscape:label="Layer 1"
     inkscape:groupmode="layer"
     id="layer1"
     transform="translate(-226.97547,-207.80676)">
    <g
       transform="matrix(1.6341669,0,0,1.7330861,-238.73452,-229.46819)"
       style="font-size:40px;font-style:normal;font-weight:normal;line-height:125%;letter-spacing:0px;word-spacing:0px;fill:#00a0ec;fill-opacity:1;stroke:none;font-family:Sans"
       id="flowRoot2985">
      <path
         d="m 316.06313,295.39 -5.08001,16.36 -4.4,0 c -0.69335,0 -1.26668,-0.25333 -1.71999,-0.76 -0.45336,-0.50667 -0.68003,-1.14666 -0.68,-1.92 -3e-5,-0.37333 0.0666,-0.8 0.19999,-1.28 l 3.88,-12.4 -8.44,0 -3.95999,12.88 c -0.37335,1.25334 -1.01335,2.14667 -1.92001,2.68 -0.88,0.53333 -1.81334,0.8 -2.8,0.8 l -4.24,0 5.12,-16.36 -4.76,0 c -0.72,2e-5 -1.28,-0.15998 -1.68,-0.48 -0.4,-0.31998 -0.6,-0.83998 -0.6,-1.56 0,-0.45331 0.10667,-1.06665 0.32001,-1.84 l 0.83999,-3 7.68,0 3.52,-11.36 -8.64,0 1.2,-3.92 c 0.29333,-1.01329 0.78666,-1.74663 1.48,-2.2 0.72,-0.47996 1.77333,-0.71996 3.16,-0.72 l 4.64001,0 4.12,-13.12 c 0.31998,-1.01328 0.89331,-1.79994 1.71999,-2.36 0.82665,-0.58661 1.74665,-0.87994 2.76,-0.88 l 4.36,0 -5.16,16.36 8.4,0 5.12,-16.36 4.28,0 c 0.79996,6e-5 1.4533,0.22672 1.96001,0.68 0.50662,0.45339 0.75995,1.02672 0.75999,1.72 -4e-5,0.34672 -0.0534,0.66672 -0.16,0.96 l -4.12,13 8.20001,0 -1.28001,3.96 c -0.32004,0.9867 -0.81337,1.72004 -1.47999,2.2 -0.66672,0.45337 -1.68005,0.68003 -3.04,0.68 l -4.24001,0 -3.52,11.36 5.88001,0 c 0.74662,2e-5 1.31995,0.14669 1.71999,0.44 0.39996,0.29336 0.59996,0.81336 0.60001,1.56 -5e-5,0.45335 -0.10671,1.06669 -0.32,1.84 l -0.88001,3.04 -8.79999,0 m -14.44,-6.88 8.44,0 3.51999,-11.36 -8.39999,0 -3.56,11.36"
         style="font-size:80px;font-style:italic;font-variant:normal;font-weight:bold;font-stretch:normal;text-align:center;text-anchor:middle;fill:#00a0ec;font-family:Lato;-inkscape-font-specification:Lato Bold Italic"
         id="path3199" />
      <path
         d="m 349.62937,252.31 -4.15999,34.04 1,0 c 0.61331,3e-5 1.10664,-0.0933 1.47999,-0.28 0.39999,-0.18664 0.81332,-0.53331 1.24,-1.04 l 10.88,-12.6 c 0.47997,-0.53329 0.97331,-0.94663 1.48,-1.24 0.50664,-0.31996 1.14664,-0.47996 1.92001,-0.48 l 8.8,0 -13.52001,15.24 c -0.50669,0.56003 -1.01336,1.08002 -1.52,1.56 -0.50669,0.45336 -1.04002,0.85336 -1.6,1.2 0.50665,0.37336 0.91998,0.84002 1.24,1.4 0.34664,0.53335 0.67998,1.10669 1,1.72 l 10.16001,19.92 -8.56,0 c -0.72003,0 -1.32003,-0.13333 -1.80001,-0.4 -0.45336,-0.26667 -0.84002,-0.72 -1.16,-1.36 l -7.96,-15.56 c -0.32001,-0.61332 -0.65335,-1.01331 -1,-1.2 -0.32001,-0.18665 -0.85334,-0.27998 -1.6,-0.28 l -1.32,0 -2.28,18.8 -9.75999,0 7.27999,-59.44 9.76,0"
         style="font-size:80px;font-style:italic;font-variant:normal;font-weight:bold;font-stretch:normal;text-align:center;text-anchor:middle;fill:#00a0ec;font-family:Lato;-inkscape-font-specification:Lato Bold Italic"
         id="path3201" />
      <path
         d="m 411.73063,304.39 c -1.68004,1e-5 -3.12004,-0.41333 -4.32001,-1.24 -1.20003,-0.85332 -1.9467,-2.22666 -2.24,-4.12 -1.68003,1.92001 -3.38669,3.29334 -5.11999,4.12 -1.73337,0.80001 -3.5467,1.20001 -5.44,1.2 -1.36003,10e-6 -2.53336,-0.23999 -3.52001,-0.72 -0.98668,-0.47999 -1.81335,-1.14666 -2.47999,-2 -0.66669,-0.85332 -1.16002,-1.85332 -1.48001,-3 -0.32001,-1.17332 -0.48001,-2.42665 -0.48,-3.76 -1e-5,-1.62665 0.21332,-3.27998 0.64,-4.96 0.42665,-1.70664 1.05332,-3.35997 1.88,-4.96 0.85332,-1.59997 1.89332,-3.0933 3.12,-4.48 1.25332,-1.4133 2.69331,-2.63997 4.32001,-3.68 1.62663,-1.06663 3.43997,-1.90663 5.44,-2.52 2.02663,-0.6133 4.22663,-0.91996 6.59999,-0.92 0.98663,4e-5 1.87997,0.04 2.68,0.12 0.79996,0.08 1.54663,0.20004 2.24,0.36 0.69329,0.13337 1.34663,0.3067 1.96,0.52 0.61329,0.21337 1.22663,0.4667 1.84001,0.76 l -5.40001,14.8 c -0.45337,1.20002 -0.76004,2.25335 -0.92,3.16 -0.16004,0.88002 -0.24003,1.64002 -0.23999,2.28 -4e-5,1.20002 0.27995,2.02668 0.83999,2.48 0.55996,0.42668 1.27996,0.64001 2.16001,0.64 1.19995,10e-6 2.34662,-0.45332 3.44,-1.36 1.09328,-0.90665 2.05328,-2.15998 2.87999,-3.76 0.85329,-1.59998 1.53329,-3.49331 2.04,-5.68 0.50662,-2.18664 0.75995,-4.55997 0.76001,-7.12 -6e-5,-2.87997 -0.41339,-5.42663 -1.24001,-7.64 -0.80005,-2.23996 -1.96004,-4.10662 -3.48,-5.6 -1.49337,-1.51995 -3.32004,-2.66662 -5.47999,-3.44 -2.13338,-0.77328 -4.52004,-1.15995 -7.16001,-1.16 -2.34669,5e-5 -4.61336,0.34672 -6.8,1.04 -2.16002,0.69338 -4.17335,1.68005 -6.03999,2.96 -1.86669,1.28004 -3.57336,2.82671 -5.12,4.64 -1.52002,1.78671 -2.82669,3.80004 -3.92001,6.04 -1.09334,2.24003 -1.94667,4.6667 -2.56,7.28 -0.58667,2.58669 -0.88,5.32002 -0.87999,8.2 -10e-6,3.62668 0.49332,6.82668 1.47999,9.6 1.01333,2.77334 2.42666,5.10667 4.24,7 1.81332,1.86667 3.98665,3.28 6.52001,4.24 2.5333,0.98666 5.3333,1.48 8.39999,1.48 1.89331,0 3.6533,-0.10667 5.28,-0.32 1.6533,-0.21334 3.14663,-0.50667 4.48,-0.88 1.35996,-0.34667 2.55996,-0.74667 3.60001,-1.2 1.06662,-0.45333 1.98662,-0.90667 2.75999,-1.36 0.37329,-0.21333 0.71996,-0.36 1.04001,-0.44 0.31995,-0.08 0.61328,-0.12 0.88,-0.12 0.55995,0 0.98661,0.16 1.27999,0.48 0.29329,0.32 0.50662,0.70667 0.64001,1.16 l 0.71999,2.72 c -2.77338,1.81333 -5.93337,3.29333 -9.48,4.44 -3.5467,1.14666 -7.52003,1.71999 -11.92,1.72 -4.05335,-10e-6 -7.73335,-0.66668 -11.04,-2 -3.28001,-1.30667 -6.09334,-3.18667 -8.44,-5.64 -2.34667,-2.42667 -4.16,-5.37333 -5.43999,-8.84 -1.28001,-3.46666 -1.92001,-7.35999 -1.92001,-11.68 0,-3.33331 0.4,-6.54664 1.2,-9.64 0.8,-3.11997 1.92,-6.03997 3.36,-8.76 1.44,-2.71996 3.17333,-5.18662 5.2,-7.4 2.02666,-2.23995 4.25332,-4.15995 6.68,-5.76 2.45332,-1.59995 5.07998,-2.83995 7.88,-3.72 2.79998,-0.87995 5.69331,-1.31994 8.68,-1.32 3.22663,6e-5 6.2533,0.56005 9.08,1.68 2.82662,1.09339 5.29329,2.68005 7.40001,4.76 2.13327,2.05338 3.81327,4.56004 5.03999,7.52 1.22661,2.96004 1.83995,6.28003 1.84,9.96 -5e-5,3.36003 -0.48005,6.49336 -1.43999,9.4 -0.93339,2.88002 -2.21339,5.40002 -3.84001,7.56 -1.62671,2.13335 -3.53338,3.81334 -5.72,5.04 -2.16004,1.22667 -4.48004,1.84001 -6.95999,1.84 m -14.44001,-6.2 c 0.61331,10e-6 1.23998,-0.10665 1.88,-0.32 0.63998,-0.23999 1.26664,-0.63999 1.88001,-1.2 0.63996,-0.55998 1.2533,-1.30665 1.83999,-2.24 0.58664,-0.95998 1.14664,-2.14665 1.68,-3.56 l 4.12,-11.36 c -0.72003,-0.15997 -1.49336,-0.23997 -2.31999,-0.24 -1.60004,3e-5 -3.1467,0.41337 -4.64001,1.24 -1.46669,0.8267 -2.77336,1.92003 -3.91999,3.28 -1.12003,1.36003 -2.0267,2.92003 -2.72001,4.68 -0.66669,1.73335 -1.00002,3.52002 -1,5.36 -2e-5,1.36002 0.26665,2.42668 0.8,3.2 0.53331,0.77335 1.33331,1.16001 2.4,1.16"
         style="font-size:80px;font-style:italic;font-variant:normal;font-weight:bold;font-stretch:normal;text-align:center;text-anchor:middle;fill:#00a0ec;font-family:Lato;-inkscape-font-specification:Lato Bold Italic"
         id="path3203" />
    </g>
    <flowRoot
       xml:space="preserve"
       id="flowRoot2993"
       style="font-size:40px;font-style:normal;font-weight:normal;line-height:125%;letter-spacing:0px;word-spacing:0px;fill:#000000;fill-opacity:1;stroke:none;font-family:Sans"><flowRegion
         id="flowRegion2995"><rect
           id="rect2997"
           width="3.0691874"
           height="82.254227"
           x="437.35922"
           y="497.76001" /></flowRegion><flowPara
         id="flowPara2999" /></flowRoot>    <flowRoot
       xml:space="preserve"
       id="flowRoot3190"
       style="fill:black;stroke:none;stroke-opacity:1;stroke-width:1px;stroke-linejoin:miter;stroke-linecap:butt;fill-opacity:1;font-family:Lato;font-style:normal;font-weight:normal;font-size:40px;line-height:125%;letter-spacing:0px;word-spacing:0px;-inkscape-font-specification:Lato;font-stretch:normal;font-variant:normal"><flowRegion
         id="flowRegion3192"><rect
           id="rect3194"
           width="418.42291"
           height="100.69929"
           x="-8.6809731"
           y="41.592831" /></flowRegion><flowPara
         id="flowPara3196"></flowPara></flowRoot>  </g>
</svg>
